<svg width="25" height="24" viewBox="0 0 25 24" fill="none" xmlns="http://www.w3.org/2000/svg">
<path fill-rule="evenodd" clip-rule="evenodd" d="M21.5 20.5V19.5C21.5 19.2239 21.2761 19 21 19H19.5V10C19.5 9.44772 19.0523 9 18.5 9H14.5C13.9477 9 13.5 9.44772 13.5 10V19H11.5V4C11.5 3.44772 11.0523 3 10.5 3H6.5C5.94772 3 5.5 3.44772 5.5 4V19H4C3.72386 19 3.5 19.2239 3.5 19.5V20.5C3.5 20.7761 3.72386 21 4 21H21C21.2761 21 21.5 20.7761 21.5 20.5ZM15.5 11H17.5V19H15.5V11ZM9.5 5H7.5V19H9.5V5Z" fill="#A8A8A8"/>
</svg>
