<svg width="44" height="44" viewBox="0 0 44 44" fill="none" xmlns="http://www.w3.org/2000/svg">
<circle cx="22" cy="22" r="22" fill="#BEBDFF"/>
<path fill-rule="evenodd" clip-rule="evenodd" d="M29 17H16C15.4477 17 15 16.5523 15 16C15 15.4477 15.4477 15 16 15H29C29 13.8954 28.1046 13 27 13H16C14.3431 13 13 14.3431 13 16V29C13 30.1046 13.8954 31 15 31H29C30.1046 31 31 30.1046 31 29V19C31 17.8954 30.1046 17 29 17ZM29 27H22C21.4477 27 21 26.5523 21 26V22C21 21.4477 21.4477 21 22 21H29V27ZM24.5 25H23.5C23.2239 25 23 24.7761 23 24.5V23.5C23 23.2239 23.2239 23 23.5 23H24.5C24.7761 23 25 23.2239 25 23.5V24.5C25 24.7761 24.7761 25 24.5 25Z" fill="#23209A"/>
</svg>
