<svg width="48" height="48" viewBox="0 0 48 48" fill="none" xmlns="http://www.w3.org/2000/svg">
<path d="M0 12C0 5.37258 5.37258 0 12 0H36C42.6274 0 48 5.37258 48 12V36C48 42.6274 42.6274 48 36 48H12C5.37258 48 0 42.6274 0 36V12Z" fill="#BEBDFF"/>
<path fill-rule="evenodd" clip-rule="evenodd" d="M23.3919 14.32C23.4702 14.1244 23.6604 13.9972 23.8706 14H24.1298C24.3381 13.9956 24.5263 14.124 24.5986 14.32L27.0817 20.21L33.4542 20.72C33.6593 20.7325 33.8346 20.8724 33.893 21.07L33.9728 21.32C34.0383 21.5087 33.9831 21.7184 33.8331 21.85L28.9865 26L30.4225 32.22C30.4712 32.4188 30.3965 32.6275 30.233 32.75L30.0137 32.9C29.9284 32.967 29.8227 33.0023 29.7145 33C29.6232 33.0019 29.5332 32.9777 29.4552 32.93L24.0002 29.6L18.5751 32.93C18.4971 32.9777 18.4072 33.0019 18.3158 33C18.2076 33.0023 18.1019 32.967 18.0167 32.9L17.7674 32.75C17.6039 32.6275 17.5293 32.4188 17.5779 32.22L19.0139 26L14.1772 21.86C14.0195 21.7292 13.9598 21.5136 14.0276 21.32L14.1373 21.07C14.1957 20.8724 14.371 20.7325 14.5761 20.72L20.9486 20.21L23.3919 14.32ZM30.6519 22.25L25.8551 21.87L24.0002 17.41L22.1453 21.87L17.3485 22.25L21.0084 25.38L19.8815 30.06L24.0002 27.55L28.1089 30.06L26.992 25.38L30.6519 22.25Z" fill="#23209A"/>
</svg>
