<svg width="48" height="48" viewBox="0 0 48 48" fill="none" xmlns="http://www.w3.org/2000/svg">
<path d="M0 12C0 5.37258 5.37258 0 12 0H36C42.6274 0 48 5.37258 48 12V36C48 42.6274 42.6274 48 36 48H12C5.37258 48 0 42.6274 0 36V12Z" fill="#C6FFF8"/>
<path fill-rule="evenodd" clip-rule="evenodd" d="M31 19.983H27.45C27.806 19.3756 27.9957 18.6849 28 17.9806H31C31 16.8747 30.1046 15.9782 29 15.9782H27.45C26.7319 14.7528 25.4191 14 24 14C22.5809 14 21.2681 14.7528 20.55 15.9782H18C16.3431 15.9782 15 17.3229 15 18.9818V31.9976C15 33.1035 15.8954 34 17 34H31C32.1046 34 33 33.1035 33 31.9976V21.9854C33 20.8795 32.1046 19.983 31 19.983ZM24 15.9782C25.1046 15.9782 26 16.8747 26 17.9806C26 19.0865 25.1046 19.983 24 19.983C22.8954 19.983 22 19.0865 22 17.9806C22 16.8747 22.8954 15.9782 24 15.9782ZM20 17.9806H18C17.4477 17.9806 17 18.4289 17 18.9818C17 19.5348 17.4477 19.983 18 19.983H20.55C20.194 19.3756 20.0043 18.6849 20 17.9806ZM31 23.9879H24C23.4477 23.9879 23 24.4361 23 24.9891V28.9939C23 29.5469 23.4477 29.9951 24 29.9951H31V31.9976H17V21.9854H31V23.9879ZM27 27.4921V26.4909C27 26.2144 26.7761 25.9903 26.5 25.9903H25.5C25.2239 25.9903 25 26.2144 25 26.4909V27.4921C25 27.7686 25.2239 27.9927 25.5 27.9927H26.5C26.7761 27.9927 27 27.7686 27 27.4921Z" fill="#048273"/>
</svg>
