<svg width="48" height="48" viewBox="0 0 48 48" fill="none" xmlns="http://www.w3.org/2000/svg">
<path d="M0 12C0 5.37258 5.37258 0 12 0H36C42.6274 0 48 5.37258 48 12V36C48 42.6274 42.6274 48 36 48H12C5.37258 48 0 42.6274 0 36V12Z" fill="#FFDEE2"/>
<path fill-rule="evenodd" clip-rule="evenodd" d="M29 19C29 16.2386 26.7614 14 24 14C21.2386 14 19 16.2386 19 19C19 21.7614 21.2386 24 24 24C26.7614 24 29 21.7614 29 19ZM24 16C22.3432 16 21 17.3431 21 19C21 20.6569 22.3432 22 24 22C25.6569 22 27 20.6569 27 19C27 17.3431 25.6569 16 24 16ZM16.24 24.3L21.54 27.48C22.4442 28.0209 22.9984 28.9964 23 30.05V33C23 33.5523 22.5523 34 22 34H18C17.4477 34 17 33.5523 17 33V32.2C16.9809 31.9221 16.8469 31.6648 16.63 31.49L12.94 28.49C12.3434 28.0192 11.9967 27.3 12 26.54V19C12 18.4477 12.4477 18 13 18C13.5523 18 14 18.4477 14 19V23.57C13.7271 23.7627 13.4987 24.0116 13.33 24.3C12.9803 24.8645 12.879 25.5483 13.05 26.19C13.2073 26.8358 13.6183 27.391 14.19 27.73L17.78 29.86C17.9537 29.9693 18.1766 29.9614 18.3421 29.8401C18.5076 29.7187 18.5821 29.5085 18.53 29.31C18.4925 29.1827 18.411 29.0728 18.3 29L14.7 26.87C14.3591 26.6646 14.1138 26.3321 14.0181 25.9457C13.9225 25.5593 13.9843 25.1508 14.19 24.81C14.3731 24.5051 14.6611 24.2776 15 24.17C15.1571 24.1135 15.3232 24.0864 15.49 24.09C15.7549 24.0877 16.0149 24.1605 16.24 24.3ZM36 26.53V19C36 18.4477 35.5523 18 35 18C34.4477 18 34 18.4477 34 19V23.58C34.8386 24.1614 35.2354 25.1971 35 26.19C34.8236 26.8334 34.3943 27.378 33.81 27.7L30.22 29.86C30.0463 29.9693 29.8235 29.9614 29.658 29.8401C29.4925 29.7187 29.418 29.5085 29.47 29.31C29.5075 29.1827 29.589 29.0728 29.7 29L33.3 26.87C33.641 26.6646 33.8863 26.3321 33.9819 25.9457C34.0776 25.5593 34.0157 25.1508 33.81 24.81C33.627 24.5051 33.339 24.2776 33 24.17C32.843 24.1135 32.6769 24.0864 32.51 24.09C32.2452 24.0877 31.9851 24.1605 31.76 24.3L26.46 27.48C25.5558 28.0209 25.0016 28.9964 25 30.05V33C25 33.5523 25.4477 34 26 34H30C30.5523 34 31 33.5523 31 33V32.25C31.002 31.9509 31.1377 31.6684 31.37 31.48L35.06 28.48C35.6567 28.0092 36.0034 27.29 36 26.53ZM32.64 23.1H33.01V19.75L32.86 19.49C32.5824 19.0234 31.9831 18.8636 31.51 19.13C31.0434 19.4076 30.8836 20.0069 31.15 20.48L32.64 23.1ZM16.52 19.14C16.9866 19.4176 17.1464 20.0169 16.88 20.49L15.37 23.14H15V19.75L15.17 19.5C15.4477 19.0334 16.0469 18.8736 16.52 19.14Z" fill="#AF2637"/>
</svg>
