<svg width="48" height="48" viewBox="0 0 48 48" fill="none" xmlns="http://www.w3.org/2000/svg">
<path d="M0 12C0 5.37258 5.37258 0 12 0H36C42.6274 0 48 5.37258 48 12V36C48 42.6274 42.6274 48 36 48H12C5.37258 48 0 42.6274 0 36V12Z" fill="#ACE6FF"/>
<path fill-rule="evenodd" clip-rule="evenodd" d="M31 14H17C16.4477 14 16 14.4477 16 15V31.26C16.0037 31.5248 16.1073 31.7784 16.29 31.97L18.18 33.85C18.2703 33.9471 18.3974 34.0016 18.53 34H18.82C18.9526 34.0016 19.0797 33.9471 19.17 33.85L21 32C21.0923 31.9058 21.2181 31.8519 21.35 31.85C21.4817 31.8529 21.6071 31.9067 21.7 32L23.51 33.81C23.6003 33.9071 23.7274 33.9616 23.86 33.96H24.15C24.2826 33.9616 24.4097 33.9071 24.5 33.81L26.32 32C26.4123 31.9058 26.5381 31.8519 26.67 31.85C26.7947 31.8579 26.9121 31.9113 27 32L28.81 33.81C28.9003 33.9071 29.0274 33.9616 29.16 33.96H29.45C29.5826 33.9616 29.7097 33.9071 29.8 33.81L31.71 32C31.8947 31.8137 31.9989 31.5623 32 31.3V15C32 14.4477 31.5523 14 31 14ZM27.5 22C27.7761 22 28 21.7761 28 21.5V20.5C28 20.2239 27.7761 20 27.5 20H20.5C20.2239 20 20 20.2239 20 20.5V21.5C20 21.7761 20.2239 22 20.5 22H27.5ZM24.5 26C24.7761 26 25 25.7761 25 25.5V24.5C25 24.2239 24.7761 24 24.5 24H20.5C20.2239 24 20 24.2239 20 24.5V25.5C20 25.7761 20.2239 26 20.5 26H24.5ZM29.34 31.52L30 30.86V16H18V30.84L18.68 31.52L19.91 30.29C20.0963 30.1053 20.3477 30.0011 20.61 30H22.06C22.3223 30.0011 22.5737 30.1053 22.76 30.29L24 31.53L25.29 30.29C25.4787 30.1028 25.7342 29.9985 26 30H27.4C27.6623 30.0011 27.9137 30.1053 28.1 30.29L28.44 30.63L28.6 30.79L29.34 31.52Z" fill="#0C77A5"/>
</svg>
