<svg width="48" height="48" viewBox="0 0 48 48" fill="none" xmlns="http://www.w3.org/2000/svg">
<path d="M0 12C0 5.37258 5.37258 0 12 0H36C42.6274 0 48 5.37258 48 12V36C48 42.6274 42.6274 48 36 48H12C5.37258 48 0 42.6274 0 36V12Z" fill="#FFDEF8"/>
<path fill-rule="evenodd" clip-rule="evenodd" d="M16 16H32C33.1046 16 34 16.8954 34 18V30C34 31.1046 33.1046 32 32 32H16C14.8954 32 14 31.1046 14 30V18C14 16.8954 14.8954 16 16 16ZM32 21V18H16V21H32ZM16 30V24H32V30H16ZM18.5 26H21.5C21.7761 26 22 26.2239 22 26.5V27.5C22 27.7761 21.7761 28 21.5 28H18.5C18.2239 28 18 27.7761 18 27.5V26.5C18 26.2239 18.2239 26 18.5 26Z" fill="#9A207F"/>
</svg>
