<svg width="48" height="48" viewBox="0 0 48 48" fill="none" xmlns="http://www.w3.org/2000/svg">
<path d="M0 12C0 5.37258 5.37258 0 12 0H36C42.6274 0 48 5.37258 48 12V36C48 42.6274 42.6274 48 36 48H12C5.37258 48 0 42.6274 0 36V12Z" fill="#DEFFE3"/>
<path fill-rule="evenodd" clip-rule="evenodd" d="M30 27H32C32.5523 27 33 27.4477 33 28V32C33 32.5523 32.5523 33 32 33H26C25.4477 33 25 32.5523 25 32V28C25 27.4477 25.4477 27 26 27H28V25H20V27H22C22.5523 27 23 27.4477 23 28V32C23 32.5523 22.5523 33 22 33H16C15.4477 33 15 32.5523 15 32V28C15 27.4477 15.4477 27 16 27H18V25C18 23.8954 18.8954 23 20 23H23V21H21C20.4477 21 20 20.5523 20 20V16C20 15.4477 20.4477 15 21 15H27C27.5523 15 28 15.4477 28 16V20C28 20.5523 27.5523 21 27 21H25V23H28C29.1046 23 30 23.8954 30 25V27ZM26 17H22V19H26V17ZM21 31H17V29H21V31ZM27 31H31V29H27V31Z" fill="#289238"/>
</svg>
