<svg width="44" height="44" viewBox="0 0 44 44" fill="none" xmlns="http://www.w3.org/2000/svg">
<circle cx="22" cy="22" r="22" fill="#DEFFE3"/>
<path fill-rule="evenodd" clip-rule="evenodd" d="M30 14H14C12.8954 14 12 14.8954 12 16V28C12 29.1046 12.8954 30 14 30H30C31.1046 30 32 29.1046 32 28V16C32 14.8954 31.1046 14 30 14ZM14 28V16H30V22C30 25.31 24 28 18 28H14ZM19 22C19 20.3431 20.3431 19 22 19C23.6569 19 25 20.3431 25 22C25 23.6569 23.6569 25 22 25C20.3431 25 19 23.6569 19 22Z" fill="#289238"/>
</svg>
