<svg width="169" height="83" viewBox="0 0 169 83" fill="none" xmlns="http://www.w3.org/2000/svg">
<path d="M11.5 54.5L1 84V158L169 157.5V1H153.7H139.3L124.6 10L116.13 21.5494C115.178 22.8477 114.123 24.0672 112.975 25.1962L102.5 35.5L91.3017 40.4929C88.3338 41.8161 85.1206 42.5 81.8711 42.5C77.0756 42.5 72.3983 41.0113 68.485 38.2394L62.5 34H49H35.5L22 41L11.5 54.5Z" fill="url(#paint0_linear_2001_2394)"/>
<path d="M1 84L9.26254 60.0386C10.4118 56.7056 12.1397 53.6013 14.3667 50.8682L18.5735 45.7052C20.8395 42.9243 23.5858 40.5723 26.6821 38.7609L28.4821 37.7079C33.0778 35.0194 38.3062 33.6024 43.6306 33.6024H49.1281H55.2743C60.0289 33.6024 64.6678 35.0686 68.5587 37.8012V37.8012C72.4496 40.5338 77.0885 42 81.8431 42H82.1898C85.2317 42 88.2464 41.4267 91.0761 40.3103L96.1023 38.3271C99.9911 36.7926 103.516 34.4623 106.452 31.4857L113.1 24.7437C114.095 23.7351 115.017 22.6573 115.859 21.5185L120.95 14.6352C123.267 11.5028 126.172 8.85165 129.503 6.82991L131.932 5.35508C136.625 2.50638 142.01 1 147.5 1H153.456H169" stroke="#828EFF"/>
<defs>
<linearGradient id="paint0_linear_2001_2394" x1="85" y1="1" x2="85" y2="158" gradientUnits="userSpaceOnUse">
<stop stop-color="#101C8F" stop-opacity="0.64"/>
<stop offset="1" stop-color="white" stop-opacity="0"/>
</linearGradient>
</defs>
</svg>
