<svg width="25" height="24" viewBox="0 0 25 24" fill="none" xmlns="http://www.w3.org/2000/svg">
<path fill-rule="evenodd" clip-rule="evenodd" d="M20.6524 3.43911L21.3109 4.09779C21.5916 4.37826 21.7495 4.75876 21.7499 5.15565V5.91412C21.7549 6.31792 21.5966 6.70661 21.3109 6.99195L19.4651 8.80829C19.3715 8.90275 19.2439 8.95589 19.1109 8.95589C18.9779 8.95589 18.8504 8.90275 18.7567 8.80829L15.9532 5.96402C15.763 5.76999 15.763 5.45946 15.9532 5.26543L17.759 3.43911C18.0443 3.15336 18.4329 2.995 18.8366 3H19.5948C19.9916 3.00035 20.372 3.1583 20.6524 3.43911ZM17.5695 10.6845C17.7596 10.4905 17.7596 10.1799 17.5695 9.98591L14.716 7.17159C14.6223 7.07712 14.4948 7.02399 14.3618 7.02399C14.2288 7.02399 14.1013 7.07712 14.0076 7.17159L5.95608 15.2253C5.76142 15.4183 5.60859 15.6493 5.50711 15.904L3.79105 20.2352C3.69383 20.4601 3.77415 20.7222 3.98061 20.854C4.12201 20.9952 4.33402 21.0384 4.51938 20.9638L8.84945 19.2073C9.10403 19.1058 9.33498 18.9529 9.5279 18.7582L17.5695 10.6845Z" fill="#A8A8A8"/>
</svg>
