<svg width="24" height="24" viewBox="0 0 24 24" fill="none" xmlns="http://www.w3.org/2000/svg">
<path fill-rule="evenodd" clip-rule="evenodd" d="M12.0029 8C12.0029 9.65685 10.6594 11 9.00202 11C7.34467 11 6.00111 9.65685 6.00111 8C6.00111 6.34315 7.34467 5 9.00202 5C10.6594 5 12.0029 6.34315 12.0029 8ZM16.5043 7C15.1232 7 14.0035 8.11929 14.0035 9.5C14.0035 10.8807 15.1232 12 16.5043 12C17.8854 12 19.005 10.8807 19.005 9.5C19.005 8.11929 17.8854 7 16.5043 7ZM14.4537 14.66C13.9447 13.6408 12.9023 12.9978 11.7629 13H6.24119C5.10174 12.9978 4.05932 13.6408 3.55037 14.66L2.10994 17.55C1.95392 17.8595 1.96935 18.2277 2.15071 18.5231C2.33208 18.8185 2.65351 18.999 3.00021 19H15.0038C15.3505 18.999 15.672 18.8185 15.8533 18.5231C16.0347 18.2277 16.0501 17.8595 15.8941 17.55L14.4537 14.66ZM20.9456 15.65L21.8959 17.55C22.0519 17.8595 22.0365 18.2277 21.8551 18.5231C21.6738 18.8185 21.3524 18.999 21.0057 19H17.8347C18.1043 18.2319 18.0501 17.3874 17.6846 16.66L16.3542 14H18.2648C19.3984 13.9997 20.4355 14.638 20.9456 15.65Z" fill="#828EFF"/>
</svg>
