<svg width="44" height="44" viewBox="0 0 44 44" fill="none" xmlns="http://www.w3.org/2000/svg">
<circle cx="22" cy="22" r="22" fill="#FFDEF8"/>
<path fill-rule="evenodd" clip-rule="evenodd" d="M26.4801 27.9C26.3129 27.7288 26.0466 27.7035 25.8501 27.84C24.7104 28.6003 23.3702 29.0041 22.0001 29C18.4224 28.9791 15.4362 26.2637 15.0764 22.7041C14.7166 19.1444 17.0989 15.8864 20.6001 15.15C20.833 15.1024 21.0002 14.8976 21.0001 14.66V12.66C21.0049 12.5117 20.9379 12.3702 20.8201 12.28C20.7121 12.181 20.5648 12.1368 20.4201 12.16C16.3531 12.8333 13.116 15.9334 12.2676 19.9675C11.4191 24.0017 13.1332 28.1431 16.5845 30.3976C20.0357 32.6522 24.5168 32.5578 27.8701 30.16C27.985 30.0695 28.0573 29.9356 28.0701 29.79C28.0821 29.6458 28.031 29.5036 27.9301 29.4L26.4801 27.9ZM23.0001 14.66V12.66C22.9953 12.5117 23.0623 12.3702 23.1801 12.28C23.2882 12.181 23.4355 12.1368 23.5801 12.16C27.8503 12.8411 31.199 16.1898 31.8801 20.46C31.9033 20.6046 31.8591 20.7519 31.7601 20.86C31.6699 20.9777 31.5284 21.0447 31.3801 21.04H29.3801C29.1425 21.04 28.9376 20.8728 28.8901 20.64C28.3356 17.8698 26.1703 15.7044 23.4001 15.15C23.1673 15.1024 23.0001 14.8976 23.0001 14.66ZM29.3801 23H31.3801C31.5455 22.9775 31.71 23.0464 31.8101 23.18C31.9091 23.288 31.9533 23.4353 31.9301 23.58C31.6772 25.1238 31.0714 26.5884 30.1601 27.86C30.0733 27.9805 29.9382 28.0572 29.7901 28.07C29.646 28.0819 29.5038 28.0308 29.4001 27.93L27.9501 26.48C27.7829 26.3109 27.7578 26.0475 27.8901 25.85C28.3847 25.1088 28.7248 24.2755 28.8901 23.4C28.9376 23.1671 29.1425 22.9999 29.3801 23Z" fill="#9A207F"/>
</svg>
