<svg width="45" height="44" viewBox="0 0 45 44" fill="none" xmlns="http://www.w3.org/2000/svg">
<circle cx="22.5" cy="22" r="22" fill="#C6FFF8"/>
<path fill-rule="evenodd" clip-rule="evenodd" d="M23.5 14H21.5C20.9477 14 20.5 14.4477 20.5 15V29C20.5 29.5523 20.9477 30 21.5 30H23.5C24.0523 30 24.5 29.5523 24.5 29V15C24.5 14.4477 24.0523 14 23.5 14ZM18.5 23V29C18.5 29.5523 18.0523 30 17.5 30H15.5C14.9477 30 14.5 29.5523 14.5 29V23C14.5 22.4477 14.9477 22 15.5 22H17.5C18.0523 22 18.5 22.4477 18.5 23ZM27.5 18H29.5C30.0523 18 30.5 18.4477 30.5 19V29C30.5 29.5523 30.0523 30 29.5 30H27.5C26.9477 30 26.5 29.5523 26.5 29V19C26.5 18.4477 26.9477 18 27.5 18Z" fill="#048172"/>
</svg>
