<svg width="24" height="24" viewBox="0 0 24 24" fill="none" xmlns="http://www.w3.org/2000/svg">
<path fill-rule="evenodd" clip-rule="evenodd" d="M14.41 6H20C21.1046 6 22 6.89543 22 8V18C22 19.1046 21.1046 20 20 20H4C2.89543 20 2 19.1046 2 18V6C2 4.89543 2.89543 4 4 4H11.59C11.8523 4.0011 12.1037 4.10526 12.29 4.29L13.71 5.71C13.8963 5.89474 14.1477 5.9989 14.41 6ZM12.5 14C12.7761 14 13 13.7761 13 13.5V12.5C13 12.2239 12.7761 12 12.5 12H10V9.5C10 9.22386 9.77614 9 9.5 9H8.5C8.22386 9 8 9.22386 8 9.5V12H5.5C5.22386 12 5 12.2239 5 12.5V13.5C5 13.7761 5.22386 14 5.5 14H8V16.5C8 16.7761 8.22386 17 8.5 17H9.5C9.77614 17 10 16.7761 10 16.5V14H12.5Z" fill="#A8A8A8"/>
</svg>
