<svg width="24" height="24" viewBox="0 0 24 24" fill="none" xmlns="http://www.w3.org/2000/svg">
<path d="M21 15V19C21 20.1046 20.1046 21 19 21H17C16.4477 21 16 20.5523 16 20V14C16 13.4477 16.4477 13 17 13V10C17 7.23858 14.7614 5 12 5C9.23858 5 7 7.23858 7 10V13C7.55228 13 8 13.4477 8 14V20C8 20.5523 7.55228 21 7 21H5C3.89543 21 3 20.1046 3 19V15C3 13.8954 3.89543 13 5 13V10C5 6.13401 8.13401 3 12 3C15.866 3 19 6.13401 19 10V13C19.5304 13 20.0391 13.2107 20.4142 13.5858C20.7893 13.9609 21 14.4696 21 15Z" fill="#A8A8A8"/>
</svg>
