<svg width="20" height="16" viewBox="0 0 20 16" fill="none" xmlns="http://www.w3.org/2000/svg">
<path fill-rule="evenodd" clip-rule="evenodd" d="M18 3H16.83C16.297 3.00042 15.7858 2.78804 15.41 2.41L13.88 0.88C13.3179 0.31723 12.5554 0.000700208 11.76 0H8.24C7.44462 0.000700208 6.68207 0.31723 6.12 0.88L4.59 2.41C4.2142 2.78804 3.70304 3.00042 3.17 3H2C0.89543 3 0 3.89543 0 5V14C0 15.1046 0.89543 16 2 16H18C19.1046 16 20 15.1046 20 14V5C20 3.89543 19.1046 3 18 3ZM10 13C7.79086 13 6 11.2091 6 9C6 6.79086 7.79086 5 10 5C12.2091 5 14 6.79086 14 9C14 10.0609 13.5786 11.0783 12.8284 11.8284C12.0783 12.5786 11.0609 13 10 13ZM10.41 6.75C10.8019 7.55661 11.4534 8.20814 12.26 8.6C12.4099 8.67647 12.5031 8.83174 12.5 9C12.4864 9.16415 12.3822 9.30693 12.23 9.37C11.418 9.76258 10.7626 10.418 10.37 11.23C10.2986 11.3705 10.1574 11.462 10 11.47H9.97C9.81258 11.462 9.67144 11.3705 9.6 11.23C9.20742 10.418 8.55196 9.76258 7.74 9.37C7.5995 9.29856 7.50795 9.15742 7.5 9C7.49692 8.83174 7.59009 8.67647 7.74 8.6C8.54661 8.20814 9.19814 7.55661 9.59 6.75C9.66848 6.59573 9.82691 6.49857 10 6.49857C10.1731 6.49857 10.3315 6.59573 10.41 6.75Z" fill="#A8A8A8"/>
</svg>
