<svg width="18" height="18" viewBox="0 0 18 18" fill="none" xmlns="http://www.w3.org/2000/svg">
<path fill-rule="evenodd" clip-rule="evenodd" d="M18 2C18 0.89543 17.1046 0 16 0H2C0.89543 0 0 0.89543 0 2V16C0 17.1046 0.89543 18 2 18H16C17.1046 18 18 17.1046 18 16V2ZM16 13.82C16.0027 13.9543 15.9512 14.0841 15.8571 14.18C15.7631 14.276 15.6344 14.33 15.5 14.33C15.3475 14.3308 15.2034 14.2606 15.11 14.14L11.11 9.14C11.0166 9.01943 10.8725 8.9492 10.72 8.95C10.5672 8.94762 10.4223 9.01818 10.33 9.14L8.04 12.02C7.94767 12.1418 7.80284 12.2124 7.65 12.21C7.49299 12.2085 7.34544 12.1347 7.25 12.01L6.25 10.65C6.14958 10.526 5.9995 10.4528 5.84 10.45C5.68299 10.4515 5.53544 10.5253 5.44 10.65L2.9 14.13C2.80776 14.2585 2.65814 14.3333 2.5 14.33C2.36657 14.3328 2.23778 14.281 2.14341 14.1866C2.04904 14.0922 1.99725 13.9634 2 13.83V2H16V13.82ZM8 6.5C8 7.32843 7.32843 8 6.5 8C5.67157 8 5 7.32843 5 6.5C5 5.67157 5.67157 5 6.5 5C7.32843 5 8 5.67157 8 6.5Z" fill="#A8A8A8"/>
</svg>
