<svg width="25" height="24" viewBox="0 0 25 24" fill="none" xmlns="http://www.w3.org/2000/svg">
<path fill-rule="evenodd" clip-rule="evenodd" d="M17.5 7C17.5 4.23858 15.2614 2 12.5 2C9.7386 2 7.50002 4.23858 7.50002 7C7.50002 9.76142 9.7386 12 12.5 12C15.2614 12 17.5 9.76142 17.5 7ZM12.5 4C10.8432 4 9.50002 5.34315 9.50002 7C9.50002 8.65685 10.8432 10 12.5 10C14.1569 10 15.5 8.65685 15.5 7C15.5 5.34315 14.1569 4 12.5 4ZM4.74002 12.3L10.04 15.48C10.9442 16.0209 11.4984 16.9964 11.5 18.05V21C11.5 21.5523 11.0523 22 10.5 22H6.50002C5.94774 22 5.50002 21.5523 5.50002 21V20.2C5.48095 19.9221 5.34685 19.6648 5.13002 19.49L1.44002 16.49C0.843374 16.0192 0.496667 15.3 0.500024 14.54V7C0.500024 6.44772 0.947739 6 1.50002 6C2.05231 6 2.50002 6.44772 2.50002 7V11.57C2.22714 11.7627 1.99869 12.0116 1.83002 12.3C1.48028 12.8645 1.37898 13.5483 1.55002 14.19C1.70733 14.8358 2.11829 15.391 2.69002 15.73L6.28002 17.86C6.45371 17.9693 6.67657 17.9614 6.84207 17.8401C7.00756 17.7187 7.08209 17.5085 7.03002 17.31C6.99252 17.1827 6.91101 17.0728 6.80002 17L3.20002 14.87C2.85909 14.6646 2.61379 14.3321 2.51814 13.9457C2.42248 13.5593 2.48432 13.1508 2.69002 12.81C2.87308 12.5051 3.1611 12.2776 3.50002 12.17C3.65706 12.1135 3.82317 12.0864 3.99002 12.09C4.25485 12.0877 4.51492 12.1605 4.74002 12.3ZM24.5 14.53V7C24.5 6.44772 24.0523 6 23.5 6C22.9477 6 22.5 6.44772 22.5 7V11.58C23.3386 12.1614 23.7354 13.1971 23.5 14.19C23.3236 14.8334 22.8943 15.378 22.31 15.7L18.72 17.86C18.5463 17.9693 18.3235 17.9614 18.158 17.8401C17.9925 17.7187 17.918 17.5085 17.97 17.31C18.0075 17.1827 18.089 17.0728 18.2 17L21.8 14.87C22.141 14.6646 22.3863 14.3321 22.4819 13.9457C22.5776 13.5593 22.5157 13.1508 22.31 12.81C22.127 12.5051 21.839 12.2776 21.5 12.17C21.343 12.1135 21.1769 12.0864 21.01 12.09C20.7452 12.0877 20.4851 12.1605 20.26 12.3L14.96 15.48C14.0558 16.0209 13.5016 16.9964 13.5 18.05V21C13.5 21.5523 13.9477 22 14.5 22H18.5C19.0523 22 19.5 21.5523 19.5 21V20.25C19.502 19.9509 19.6377 19.6684 19.87 19.48L23.56 16.48C24.1567 16.0092 24.5034 15.29 24.5 14.53ZM21.14 11.1H21.51V7.75L21.36 7.49C21.0824 7.02341 20.4831 6.86361 20.01 7.13C19.5434 7.40765 19.3836 8.00689 19.65 8.48L21.14 11.1ZM5.02002 7.14C5.48662 7.41765 5.64642 8.01689 5.38002 8.49L3.87002 11.14H3.50002V7.75L3.67002 7.5C3.94767 7.0334 4.54691 6.87361 5.02002 7.14Z" fill="#A8A8A8"/>
</svg>
