<svg width="45" height="44" viewBox="0 0 45 44" fill="none" xmlns="http://www.w3.org/2000/svg">
<circle cx="22.5" cy="22" r="22" fill="#ACE6FF"/>
<path d="M20.6499 19.44C20.7406 19.3433 20.8673 19.2885 20.9999 19.2885C21.1324 19.2885 21.2591 19.3433 21.3499 19.44L23.9999 22.09L30.9399 15.15C31.0337 15.0553 31.1615 15.0021 31.2949 15.0021C31.4282 15.0021 31.556 15.0553 31.6499 15.15L32.3499 15.85C32.4445 15.9439 32.4978 16.0717 32.4978 16.205C32.4978 16.3383 32.4445 16.4661 32.3499 16.56L24.3499 24.56C24.2591 24.6567 24.1324 24.7115 23.9999 24.7115C23.8673 24.7115 23.7406 24.6567 23.6499 24.56L20.9999 21.91L14.0599 28.85C13.966 28.9446 13.8382 28.9979 13.7049 28.9979C13.5715 28.9979 13.4437 28.9446 13.3499 28.85L12.6499 28.15C12.5552 28.0561 12.502 27.9283 12.502 27.795C12.502 27.6617 12.5552 27.5339 12.6499 27.44L20.6499 19.44Z" fill="#0C77A5"/>
</svg>
