<svg width="25" height="24" viewBox="0 0 25 24" fill="none" xmlns="http://www.w3.org/2000/svg">
<path fill-rule="evenodd" clip-rule="evenodd" d="M19.5 2H5.5C4.94772 2 4.5 2.44772 4.5 3V19.26C4.50368 19.5248 4.60727 19.7784 4.79 19.97L6.68 21.85C6.77028 21.9471 6.8974 22.0016 7.03 22H7.32C7.4526 22.0016 7.57972 21.9471 7.67 21.85L9.5 20C9.59232 19.9058 9.71812 19.8519 9.85 19.85C9.98166 19.8529 10.1071 19.9067 10.2 20L12.01 21.81C12.1003 21.9071 12.2274 21.9616 12.36 21.96H12.65C12.7826 21.9616 12.9097 21.9071 13 21.81L14.82 20C14.9123 19.9058 15.0381 19.8519 15.17 19.85C15.2947 19.8579 15.4121 19.9113 15.5 20L17.31 21.81C17.4003 21.9071 17.5274 21.9616 17.66 21.96H17.95C18.0826 21.9616 18.2097 21.9071 18.3 21.81L20.21 20C20.3947 19.8137 20.4989 19.5623 20.5 19.3V3C20.5 2.44772 20.0523 2 19.5 2ZM16 10C16.2761 10 16.5 9.77614 16.5 9.5V8.5C16.5 8.22386 16.2761 8 16 8H9C8.72386 8 8.5 8.22386 8.5 8.5V9.5C8.5 9.77614 8.72386 10 9 10H16ZM13 14C13.2761 14 13.5 13.7761 13.5 13.5V12.5C13.5 12.2239 13.2761 12 13 12H9C8.72386 12 8.5 12.2239 8.5 12.5V13.5C8.5 13.7761 8.72386 14 9 14H13ZM17.84 19.52L18.5 18.86V4H6.5V18.84L7.18 19.52L8.41 18.29C8.59626 18.1053 8.84766 18.0011 9.11 18H10.56C10.8223 18.0011 11.0737 18.1053 11.26 18.29L12.5 19.53L13.79 18.29C13.9787 18.1028 14.2342 17.9985 14.5 18H15.9C16.1623 18.0011 16.4137 18.1053 16.6 18.29L16.94 18.63L17.1 18.79L17.84 19.52Z" fill="#A8A8A8"/>
</svg>
