<svg width="25" height="24" viewBox="0 0 25 24" fill="none" xmlns="http://www.w3.org/2000/svg">
<path fill-rule="evenodd" clip-rule="evenodd" d="M19.5164 11.9857C19.5164 14.1917 17.7239 15.98 15.5127 15.98H6.50455C5.70238 15.9648 4.92744 16.2704 4.35259 16.8288L2.35077 18.826C2.25902 18.921 2.13269 18.975 2.00045 18.9757C1.72406 18.9757 1.5 18.7522 1.5 18.4765V5.99429C1.5 3.78831 3.29249 2 5.50364 2H15.5127C17.7239 2 19.5164 3.78831 19.5164 5.99429V11.9857ZM3.50182 5.99429V14.9815C4.36809 14.3333 5.42171 13.9829 6.50455 13.9829H15.5127C16.6183 13.9829 17.5146 13.0887 17.5146 11.9857V5.99429C17.5146 4.8913 16.6183 3.99715 15.5127 3.99715H5.50364C4.39807 3.99715 3.50182 4.8913 3.50182 5.99429ZM14.0114 9.98859H15.0123C15.2887 9.98859 15.5127 9.76505 15.5127 9.4893V8.49073C15.5127 8.21498 15.2887 7.99144 15.0123 7.99144H14.0114C13.735 7.99144 13.5109 8.21498 13.5109 8.49073V9.4893C13.5109 9.76505 13.735 9.98859 14.0114 9.98859ZM11.0086 9.98859H10.0077C9.73134 9.98859 9.50728 9.76505 9.50728 9.4893V8.49073C9.50728 8.21498 9.73134 7.99144 10.0077 7.99144H11.0086C11.285 7.99144 11.5091 8.21498 11.5091 8.49073V9.4893C11.5091 9.76505 11.285 9.98859 11.0086 9.98859ZM7.50546 9.4893V8.49073C7.50546 8.21498 7.2814 7.99144 7.005 7.99144H6.00409C5.7277 7.99144 5.50364 8.21498 5.50364 8.49073V9.4893C5.50364 9.76505 5.7277 9.98859 6.00409 9.98859H7.005C7.2814 9.98859 7.50546 9.76505 7.50546 9.4893ZM17.5146 17.9772C19.7257 17.9772 21.5182 16.1889 21.5182 13.9829V5.99429C22.6159 6.00525 23.5001 6.8962 23.5 7.99144V22.5007C23.5 22.7765 23.2759 23 22.9995 23C22.8673 22.9992 22.741 22.9452 22.6492 22.8502L20.6474 20.8531C20.0824 20.2886 19.315 19.9724 18.5155 19.9743H7.50546C6.39989 19.9743 5.50364 19.0802 5.50364 17.9772H17.5146Z" fill="#A8A8A8"/>
</svg>
