<svg width="24" height="24" viewBox="0 0 24 24" fill="none" xmlns="http://www.w3.org/2000/svg">
<path d="M21.4999 19H16.4999C16.2237 19 15.9999 18.7761 15.9999 18.5V18.21C15.9979 18.0744 16.0522 17.9441 16.1499 17.85L17.7899 16.21L13.4999 11.91L10.8499 14.56C10.7591 14.6567 10.6324 14.7115 10.4999 14.7115C10.3673 14.7115 10.2406 14.6567 10.1499 14.56L2.14985 6.56C2.0552 6.46612 2.00195 6.33832 2.00195 6.205C2.00195 6.07169 2.0552 5.94389 2.14985 5.85L2.84985 5.15C2.94374 5.05535 3.07153 5.00211 3.20485 5.00211C3.33817 5.00211 3.46597 5.05535 3.55985 5.15L10.4999 12.09L13.1499 9.44C13.2406 9.34333 13.3673 9.28849 13.4999 9.28849C13.6324 9.28849 13.7591 9.34333 13.8499 9.44L19.2099 14.79L20.8499 13.15C20.9439 13.0523 21.0743 12.998 21.2099 13H21.4999C21.776 13 21.9999 13.2239 21.9999 13.5V18.5C21.9999 18.7761 21.776 19 21.4999 19Z" fill="#FA3939"/>
</svg>
