<svg width="45" height="44" viewBox="0 0 45 44" fill="none" xmlns="http://www.w3.org/2000/svg">
<circle cx="22.5" cy="22" r="22" fill="#FFDEE2"/>
<path fill-rule="evenodd" clip-rule="evenodd" d="M31.3699 20.84C31.4608 20.739 31.5076 20.6058 31.4999 20.47C31.2417 16.4563 28.0437 13.2582 24.0299 13C23.8911 12.9965 23.7571 13.0508 23.6599 13.15C23.559 13.2468 23.5013 13.3802 23.4999 13.52V21H30.9999C31.1397 20.9986 31.2731 20.941 31.3699 20.84ZM21.4999 23H28.9799C29.1161 22.9999 29.2464 23.0553 29.3407 23.1535C29.4351 23.2516 29.4854 23.384 29.4799 23.52C29.2032 27.7953 25.6075 31.0938 21.3243 31.0015C17.041 30.9092 13.5908 27.4589 13.4985 23.1757C13.4062 18.8924 16.7046 15.2968 20.9799 15.02C21.116 15.0146 21.2483 15.0649 21.3465 15.1592C21.4446 15.2536 21.5 15.3839 21.4999 15.52V23Z" fill="#AF2637"/>
</svg>
