<svg width="25" height="24" viewBox="0 0 25 24" fill="none" xmlns="http://www.w3.org/2000/svg">
<path fill-rule="evenodd" clip-rule="evenodd" d="M17.5044 7C17.5044 9.76142 15.2652 12 12.5029 12C9.74067 12 7.50142 9.76142 7.50142 7C7.50142 4.23858 9.74067 2 12.5029 2C15.2652 2 17.5044 4.23858 17.5044 7ZM15.5038 7C15.5038 5.34315 14.1603 4 12.5029 4C10.8456 4 9.50202 5.34315 9.50202 7C9.50202 8.65685 10.8456 10 12.5029 10C14.1603 10 15.5038 8.65685 15.5038 7ZM22.3959 20.55L20.5054 16.76C19.6574 15.0683 17.9268 14.0001 16.034 14H8.97186C7.07907 14.0001 5.34848 15.0683 4.50051 16.76L2.60994 20.55C2.45392 20.8595 2.46935 21.2277 2.65071 21.5231C2.83208 21.8185 3.15351 21.999 3.50021 22H21.5057C21.8524 21.999 22.1738 21.8185 22.3551 21.5231C22.5365 21.2277 22.5519 20.8595 22.3959 20.55ZM6.29105 17.66L5.1207 20H19.8852L18.7148 17.66C18.2075 16.6441 17.1698 16.0016 16.034 16H8.97186C7.83602 16.0016 6.79839 16.6441 6.29105 17.66Z" fill="#A8A8A8"/>
</svg>
